<svg width="159" height="32" viewBox="0 0 159 32" fill="none" xmlns="http://www.w3.org/2000/svg">
<path d="M12.293 19.5C13.1214 19.5 13.793 18.8284 13.793 18C13.793 17.1716 13.1214 16.5 12.293 16.5C11.4645 16.5 10.793 17.1716 10.793 18C10.793 18.8284 11.4645 19.5 12.293 19.5Z" fill="#858584"/>
<path d="M20.293 19.5C21.1214 19.5 21.793 18.8284 21.793 18C21.793 17.1716 21.1214 16.5 20.293 16.5C19.4645 16.5 18.793 17.1716 18.793 18C18.793 18.8284 19.4645 19.5 20.293 19.5Z" fill="#858584"/>
<path fill-rule="evenodd" clip-rule="evenodd" d="M16.2847 9.99959C14.1169 9.98356 11.9598 10.3055 9.89113 10.9539C9.36412 11.119 8.803 10.8257 8.63783 10.2987C8.47266 9.77168 8.76599 9.21056 9.293 9.04539C11.5576 8.33563 13.9189 7.98281 16.2921 7.99959C18.6652 7.98281 21.0265 8.33563 23.2911 9.04539C23.8181 9.21056 24.1115 9.77168 23.9463 10.2987C23.7811 10.8257 23.22 11.119 22.693 10.9539C20.6243 10.3055 18.4673 9.98356 16.2995 9.99959H16.2847Z" fill="#858584"/>
<path fill-rule="evenodd" clip-rule="evenodd" d="M8.63783 21.7012C8.803 21.1742 9.36412 20.8809 9.89113 21.046C11.9598 21.6944 14.1169 22.0163 16.2847 22.0003H16.2995C18.4673 22.0163 20.6243 21.6944 22.693 21.046C23.22 20.8809 23.7811 21.1742 23.9463 21.7012C24.1115 22.2282 23.8181 22.7893 23.2911 22.9545C21.0265 23.6643 18.6652 24.0171 16.2921 24.0003C13.9189 24.0171 11.5576 23.6643 9.293 22.9545C8.76599 22.7893 8.47266 22.2282 8.63783 21.7012Z" fill="#858584"/>
<path fill-rule="evenodd" clip-rule="evenodd" d="M20.5124 4.81121C20.9429 4.56852 21.4476 4.49267 21.9303 4.59812C23.2479 4.88366 24.5378 5.28424 25.7853 5.79524C26.0661 5.90352 26.3183 6.07496 26.5224 6.29638C26.7286 6.52018 26.88 6.78885 26.9645 7.08115L31.2003 21.2255C31.3108 21.594 31.3134 21.9865 31.2077 22.3563C31.102 22.7262 30.8925 23.0581 30.604 23.3126L30.5989 23.3171C28.5314 25.1161 25.73 26.4777 22.5481 27.2577C22.1061 27.3703 21.6387 27.3265 21.2252 27.1336C20.8134 26.9414 20.4806 26.6132 20.2828 26.2044L18.7745 23.2129C18.5259 22.7197 18.7241 22.1184 19.2173 21.8698C19.7104 21.6211 20.3118 21.8194 20.5604 22.3125L22.0729 25.3125L22.074 25.3147C25.0119 24.5943 27.506 23.3571 29.286 21.8083L29.9425 22.5627L29.2809 21.8128C29.2827 21.8113 29.284 21.8092 29.2846 21.8069C29.2853 21.8046 29.2853 21.8022 29.2846 21.7999L25.0485 7.65465C25.045 7.65325 25.0414 7.65182 25.0379 7.65037C23.895 7.18149 22.713 6.81412 21.5057 6.55253L21.5035 6.55205C21.5005 6.55139 21.4974 6.55186 21.4947 6.55337C21.4923 6.55473 21.4904 6.55684 21.4893 6.55937L20.5044 9.53905C20.3311 10.0634 19.7655 10.348 19.2411 10.1747C18.7167 10.0013 18.4322 9.43574 18.6055 8.91136L19.5959 5.91516C19.7554 5.44707 20.0817 5.0541 20.5124 4.81121Z" fill="#858584"/>
<path fill-rule="evenodd" clip-rule="evenodd" d="M11.0912 6.55337C11.0885 6.55186 11.0854 6.55139 11.0824 6.55205L11.0802 6.55252C9.87285 6.81412 8.69089 7.18148 7.54798 7.65037C7.54446 7.65182 7.54092 7.65324 7.53737 7.65465L3.30139 21.7996C3.30071 21.8019 3.30061 21.8046 3.30126 21.8069C3.30185 21.809 3.30297 21.8108 3.30449 21.8123C5.08418 23.3593 7.57657 24.5949 10.5119 25.3147L10.513 25.3125L12.0255 22.3125C12.2741 21.8194 12.8755 21.6211 13.3686 21.8698C13.8618 22.1184 14.06 22.7197 13.8114 23.2129L12.3031 26.2045C12.1052 26.6132 11.7724 26.9414 11.3607 27.1336C10.9472 27.3265 10.4798 27.3703 10.0378 27.2577C6.85584 26.4777 4.05447 25.1161 1.98701 23.3171L1.98183 23.3126C1.69336 23.0581 1.4839 22.7262 1.37821 22.3563C1.27256 21.9865 1.27508 21.5942 1.38546 21.2258C1.38543 21.2259 1.38549 21.2257 1.38546 21.2258L5.62136 7.08117C5.70588 6.78887 5.85723 6.52019 6.06348 6.29638C6.26754 6.07496 6.51976 5.90352 6.80056 5.79524C8.04843 5.28409 9.33874 4.88344 10.6567 4.59788C11.1391 4.49279 11.6433 4.5687 12.0735 4.81121C12.5042 5.05409 12.8305 5.44708 12.99 5.91518L12.9929 5.92385L13.9804 8.91136C14.1537 9.43574 13.8692 10.0013 13.3448 10.1747C12.8204 10.348 12.2548 10.0634 12.0815 9.53905L11.0965 6.55937C11.0955 6.55684 11.0936 6.55473 11.0912 6.55337Z" fill="#858584"/>
<path d="M12.293 19.5C13.1214 19.5 13.793 18.8284 13.793 18C13.793 17.1716 13.1214 16.5 12.293 16.5C11.4645 16.5 10.793 17.1716 10.793 18C10.793 18.8284 11.4645 19.5 12.293 19.5Z" fill="#858584"/>
<path d="M20.293 19.5C21.1214 19.5 21.793 18.8284 21.793 18C21.793 17.1716 21.1214 16.5 20.293 16.5C19.4645 16.5 18.793 17.1716 18.793 18C18.793 18.8284 19.4645 19.5 20.293 19.5Z" fill="#858584"/>
<path fill-rule="evenodd" clip-rule="evenodd" d="M16.2847 9.99959C14.1169 9.98356 11.9598 10.3055 9.89113 10.9539C9.36412 11.119 8.803 10.8257 8.63783 10.2987C8.47266 9.77168 8.76599 9.21056 9.293 9.04539C11.5576 8.33563 13.9189 7.98281 16.2921 7.99959C18.6652 7.98281 21.0265 8.33563 23.2911 9.04539C23.8181 9.21056 24.1115 9.77168 23.9463 10.2987C23.7811 10.8257 23.22 11.119 22.693 10.9539C20.6243 10.3055 18.4673 9.98356 16.2995 9.99959H16.2847Z" fill="#858584"/>
<path fill-rule="evenodd" clip-rule="evenodd" d="M8.63783 21.7012C8.803 21.1742 9.36412 20.8809 9.89113 21.046C11.9598 21.6944 14.1169 22.0163 16.2847 22.0003H16.2995C18.4673 22.0163 20.6243 21.6944 22.693 21.046C23.22 20.8809 23.7811 21.1742 23.9463 21.7012C24.1115 22.2282 23.8181 22.7893 23.2911 22.9545C21.0265 23.6643 18.6652 24.0171 16.2921 24.0003C13.9189 24.0171 11.5576 23.6643 9.293 22.9545C8.76599 22.7893 8.47266 22.2282 8.63783 21.7012Z" fill="#858584"/>
<path fill-rule="evenodd" clip-rule="evenodd" d="M20.5124 4.81121C20.9429 4.56852 21.4476 4.49267 21.9303 4.59812C23.2479 4.88366 24.5378 5.28424 25.7853 5.79524C26.0661 5.90352 26.3183 6.07496 26.5224 6.29638C26.7286 6.52018 26.88 6.78885 26.9645 7.08115L31.2003 21.2255C31.3108 21.594 31.3134 21.9865 31.2077 22.3563C31.102 22.7262 30.8925 23.0581 30.604 23.3126L30.5989 23.3171C28.5314 25.1161 25.73 26.4777 22.5481 27.2577C22.1061 27.3703 21.6387 27.3265 21.2252 27.1336C20.8134 26.9414 20.4806 26.6132 20.2828 26.2044L18.7745 23.2129C18.5259 22.7197 18.7241 22.1184 19.2173 21.8698C19.7104 21.6211 20.3118 21.8194 20.5604 22.3125L22.0729 25.3125L22.074 25.3147C25.0119 24.5943 27.506 23.3571 29.286 21.8083L29.9425 22.5627L29.2809 21.8128C29.2827 21.8113 29.284 21.8092 29.2846 21.8069C29.2853 21.8046 29.2853 21.8022 29.2846 21.7999L25.0485 7.65465C25.045 7.65325 25.0414 7.65182 25.0379 7.65037C23.895 7.18149 22.713 6.81412 21.5057 6.55253L21.5035 6.55205C21.5005 6.55139 21.4974 6.55186 21.4947 6.55337C21.4923 6.55473 21.4904 6.55684 21.4893 6.55937L20.5044 9.53905C20.3311 10.0634 19.7655 10.348 19.2411 10.1747C18.7167 10.0013 18.4322 9.43574 18.6055 8.91136L19.5959 5.91516C19.7554 5.44707 20.0817 5.0541 20.5124 4.81121Z" fill="#858584"/>
<path fill-rule="evenodd" clip-rule="evenodd" d="M11.0912 6.55337C11.0885 6.55186 11.0854 6.55139 11.0824 6.55205L11.0802 6.55252C9.87285 6.81412 8.69089 7.18148 7.54798 7.65037C7.54446 7.65182 7.54092 7.65324 7.53737 7.65465L3.30139 21.7996C3.30071 21.8019 3.30061 21.8046 3.30126 21.8069C3.30185 21.809 3.30297 21.8108 3.30449 21.8123C5.08418 23.3593 7.57657 24.5949 10.5119 25.3147L10.513 25.3125L12.0255 22.3125C12.2741 21.8194 12.8755 21.6211 13.3686 21.8698C13.8618 22.1184 14.06 22.7197 13.8114 23.2129L12.3031 26.2045C12.1052 26.6132 11.7724 26.9414 11.3607 27.1336C10.9472 27.3265 10.4798 27.3703 10.0378 27.2577C6.85584 26.4777 4.05447 25.1161 1.98701 23.3171L1.98183 23.3126C1.69336 23.0581 1.4839 22.7262 1.37821 22.3563C1.27256 21.9865 1.27508 21.5942 1.38546 21.2258C1.38543 21.2259 1.38549 21.2257 1.38546 21.2258L5.62136 7.08117C5.70588 6.78887 5.85723 6.52019 6.06348 6.29638C6.26754 6.07496 6.51976 5.90352 6.80056 5.79524C8.04843 5.28409 9.33874 4.88344 10.6567 4.59788C11.1391 4.49279 11.6433 4.5687 12.0735 4.81121C12.5042 5.05409 12.8305 5.44708 12.99 5.91518L12.9929 5.92385L13.9804 8.91136C14.1537 9.43574 13.8692 10.0013 13.3448 10.1747C12.8204 10.348 12.2548 10.0634 12.0815 9.53905L11.0965 6.55937C11.0955 6.55684 11.0936 6.55473 11.0912 6.55337Z" fill="#858584"/>
<path fill-rule="evenodd" clip-rule="evenodd" d="M55.8211 11.1183C56.1463 10.9443 56.5408 10.9634 56.8477 11.168L62.8477 15.168C63.1259 15.3534 63.293 15.6656 63.293 16C63.293 16.3344 63.1259 16.6466 62.8477 16.8321L56.8477 20.8321C56.5408 21.0366 56.1463 21.0557 55.8211 20.8817C55.496 20.7077 55.293 20.3688 55.293 20V12C55.293 11.6312 55.496 11.2923 55.8211 11.1183ZM57.293 13.8685V18.1315L60.4902 16L57.293 13.8685Z" fill="#858584"/>
<path fill-rule="evenodd" clip-rule="evenodd" d="M58.2915 5.04985L58.2746 5.0498L58.2118 5.04983C58.1573 5.04996 58.0779 5.05035 57.9761 5.05143C57.7724 5.05359 57.4786 5.0585 57.1136 5.06945C56.3841 5.09135 55.3675 5.13749 54.2167 5.23466C51.9403 5.42685 49.0422 5.82571 46.811 6.67823L46.7964 6.68398C46.3581 6.85941 45.9672 7.13539 45.6551 7.48966C45.3431 7.84393 45.1187 8.26657 45.0001 8.7235L44.9991 8.72726C44.6877 9.94582 44.293 12.2055 44.293 15.9999C44.293 19.7942 44.6877 22.0539 44.9991 23.2725L45.0001 23.2762C45.1187 23.7332 45.3431 24.1558 45.6551 24.5101C45.9672 24.8643 46.3581 25.1403 46.7964 25.3157L46.811 25.3215C49.0422 26.174 51.9403 26.5729 54.2167 26.7651C55.3675 26.8622 56.3841 26.9084 57.1136 26.9303C57.4786 26.9412 57.7724 26.9461 57.9761 26.9483C58.0779 26.9494 58.1573 26.9498 58.2118 26.9499L58.2746 26.9499L58.2915 26.9499H58.2945L58.3113 26.9499L58.3741 26.9499C58.4286 26.9498 58.508 26.9494 58.6099 26.9483C58.8135 26.9461 59.1074 26.9412 59.4724 26.9303C60.2018 26.9084 61.2184 26.8622 62.3693 26.7651C64.6456 26.5729 67.5437 26.174 69.7749 25.3215L69.7896 25.3157C70.2279 25.1403 70.6188 24.8643 70.9308 24.5101C71.2428 24.1558 71.4672 23.7332 71.5859 23.2762L71.5868 23.2725C71.8982 22.0539 72.293 19.7942 72.293 15.9999C72.293 12.2055 71.8982 9.94582 71.5868 8.72726L71.5859 8.7235C71.4672 8.26657 71.2428 7.84393 70.9308 7.48966C70.6188 7.13539 70.2279 6.85941 69.7896 6.68398L69.7749 6.67823C67.5437 5.82571 64.6456 5.42685 62.3693 5.23466C61.2184 5.13749 60.2018 5.09135 59.4724 5.06945C59.1074 5.0585 58.8135 5.05359 58.6099 5.05143C58.508 5.05035 58.4286 5.04996 58.3741 5.04983L58.3113 5.0498L58.2945 5.04985H58.2915ZM58.2877 24.9499L58.2984 24.9498L58.3016 24.9499L58.3147 24.9499L58.3697 24.9499C58.4188 24.9498 58.4926 24.9494 58.5886 24.9484C58.7807 24.9464 59.0616 24.9417 59.4124 24.9312C60.1146 24.9101 61.0941 24.8656 62.201 24.7722C64.4371 24.5834 67.0971 24.2018 69.0526 23.4565C69.1974 23.3974 69.3265 23.3056 69.4299 23.1882C69.5344 23.0695 69.6097 22.928 69.6497 22.7751C69.9132 21.7429 70.293 19.6529 70.293 15.9999C70.293 12.3468 69.9132 10.2568 69.6497 9.22464C69.6097 9.07168 69.5344 8.9302 69.4299 8.81154C69.3265 8.69415 69.1974 8.60233 69.0526 8.54326C67.0971 7.79791 64.4371 7.41635 62.201 7.22757C61.0941 7.13411 60.1146 7.08963 59.4124 7.06855C59.0616 7.05802 58.7807 7.05336 58.5886 7.05132C58.4926 7.0503 58.4188 7.04994 58.3697 7.04983L58.3147 7.0498L58.3016 7.04983L58.2987 7.04985L58.2876 7.04991L58.2844 7.04983L58.2713 7.0498L58.2163 7.04983C58.1671 7.04994 58.0933 7.0503 57.9973 7.05132C57.8052 7.05336 57.5244 7.05802 57.1736 7.06855C56.4713 7.08963 55.4918 7.13411 54.3849 7.22757C52.1489 7.41635 49.4889 7.79791 47.5334 8.54327C47.3886 8.60234 47.2594 8.69415 47.156 8.81154C47.0515 8.9302 46.9763 9.07168 46.9363 9.22464C46.6727 10.2569 46.293 12.3468 46.293 15.9999C46.293 19.6529 46.6727 21.7429 46.9363 22.7751C46.9763 22.928 47.0515 23.0695 47.156 23.1882C47.2594 23.3056 47.3886 23.3974 47.5333 23.4565C49.4889 24.2018 52.1489 24.5834 54.3849 24.7722C55.4918 24.8656 56.4713 24.9101 57.1736 24.9312C57.5244 24.9417 57.8052 24.9464 57.9973 24.9484C58.0933 24.9494 58.1671 24.9498 58.2163 24.9499L58.2713 24.9499L58.2844 24.9499L58.2877 24.9499Z" fill="#858584"/>
<path d="M100.294 11.0005C100.294 8.25045 102.606 5.96295 105.356 6.00045C106.319 6.01157 107.259 6.3006 108.061 6.8328C108.864 7.365 109.496 8.11771 109.881 9.00045H114.294L110.256 13.038C109.996 17.0937 108.2 20.8979 105.235 23.6773C102.27 26.4566 98.3577 28.0025 94.2936 28.0005C90.2936 28.0005 89.2936 26.5005 89.2936 26.5005C89.2936 26.5005 93.2936 25.0005 95.2936 22.0005C95.2936 22.0005 87.2936 18.0005 89.2936 7.00045C89.2936 7.00045 94.2936 12.0005 100.294 13.0005V11.0005Z" stroke="#858584" stroke-width="2" stroke-linecap="round" stroke-linejoin="round"/>
<path fill-rule="evenodd" clip-rule="evenodd" d="M142.293 12C140.084 12 138.293 13.7909 138.293 16C138.293 18.2091 140.084 20 142.293 20C144.502 20 146.293 18.2091 146.293 16C146.293 13.7909 144.502 12 142.293 12ZM136.293 16C136.293 12.6863 138.979 10 142.293 10C145.607 10 148.293 12.6863 148.293 16C148.293 19.3137 145.607 22 142.293 22C138.979 22 136.293 19.3137 136.293 16Z" fill="#858584"/>
<path fill-rule="evenodd" clip-rule="evenodd" d="M136.793 5.5C134.032 5.5 131.793 7.73858 131.793 10.5V21.5C131.793 24.2614 134.032 26.5 136.793 26.5H147.793C150.554 26.5 152.793 24.2614 152.793 21.5V10.5C152.793 7.73858 150.554 5.5 147.793 5.5H136.793ZM129.793 10.5C129.793 6.63401 132.927 3.5 136.793 3.5H147.793C151.659 3.5 154.793 6.63401 154.793 10.5V21.5C154.793 25.366 151.659 28.5 147.793 28.5H136.793C132.927 28.5 129.793 25.366 129.793 21.5V10.5Z" fill="#858584"/>
<path d="M148.793 11C149.621 11 150.293 10.3284 150.293 9.5C150.293 8.67157 149.621 8 148.793 8C147.965 8 147.293 8.67157 147.293 9.5C147.293 10.3284 147.965 11 148.793 11Z" fill="#858584"/>
</svg>
